<svg xmlns="http://www.w3.org/2000/svg"><defs> <style> .cls-1 { fill: #fff; fill-rule: evenodd; } </style>  <style> .cls-1 { fill: #fff; fill-rule: evenodd; } </style>  <style> .cls-1 { fill: #fff; fill-rule: evenodd; } </style>  <style> .cls-1 { fill: #fff; fill-rule: evenodd; } </style>  <style> .cls-1 { fill: #4b9e70; } </style>  <style> .cls-1 { fill: #fff; fill-rule: evenodd; } </style>  <style> .cls-1 { fill-rule: evenodd; } </style>  <style> .cls-1 { fill-rule: evenodd; } </style>  <style> .cls-1 { fill: #fff; fill-rule: evenodd; } </style> </defs><symbol viewBox="0 0 32 32" id="icon-arrow-down"><title>arrow-down</title>  <path id="arrow-down-arrow" class="cls-1" d="M520,614.6l-1.1-1.6-7.172,4.8L505.1,613l-1.1,1.6,7.724,6.4Z" transform="translate(-496 -601)"/> </symbol><symbol viewBox="0 0 32 32" id="icon-arrow-left"><title>arrow-left</title>  <path id="arrow-left-arrow" class="cls-1" d="M514.4,625l1.6-1.1-4.8-7.172L516,610.1l-1.6-1.1-6.4,7.724Z" transform="translate(-496 -601)"/> </symbol><symbol viewBox="0 0 32 32" id="icon-arrow-right"><title>arrow-right</title>  <path id="arrow-right-arrow" class="cls-1" d="M509.6,625l-1.6-1.1,4.8-7.172L508,610.1l1.6-1.1,6.4,7.724Z" transform="translate(-496 -601)"/> </symbol><symbol viewBox="0 0 32 32" id="icon-arrow-up"><title>arrow-up</title>  <path id="arrow-up-arrow" class="cls-1" d="M520,619.4l-1.1,1.6-7.172-4.8L505.1,621l-1.1-1.6,7.724-6.4Z" transform="translate(-496 -601)"/> </symbol><symbol viewBox="0 0 32 32" id="icon-cart_num"><title>cart_num</title>  <circle class="cls-1" cx="16" cy="16" r="14"/> </symbol><symbol viewBox="0 0 32 32" id="icon-close"><title>close</title>  <path id="close-close" class="cls-1" d="M928,130l-2-2-6,6-6-6-2,2,6,6-6,6,2,2,6-6,6,6,2-2-6-6Z" transform="translate(-904 -120)"/> </symbol><symbol viewBox="0 0 32 32" id="icon-dropdown-close"><title>dropdown-close</title>  <path class="cls-1" d="M609,779h9l-4.5-8Z" transform="translate(-597.5 -759)"/> </symbol><symbol viewBox="0 0 32 32" id="icon-dropdown-open"><title>dropdown-open</title>  <path class="cls-1" d="M609,771h9l-4.5,8Z" transform="translate(-597.5 -759)"/> </symbol><symbol viewBox="0 0 32 32" id="icon-hamburger"><title>hamburger</title>  <path id="hamburger-_" data-name="|||" class="cls-1" d="M957.985,15v3.7h20V15h-20Zm0,7.155v3.7h20v-3.7h-20Zm0,7.155v3.7h20v-3.7h-20Z" transform="translate(-952 -8)"/> </symbol></svg>