<?xml version="1.0" encoding="utf-8"?>
<!-- Generator: Adobe Illustrator 18.0.0, SVG Export Plug-In . SVG Version: 6.00 Build 0)  -->
<!DOCTYPE svg PUBLIC "-//W3C//DTD SVG 1.1//EN" "http://www.w3.org/Graphics/SVG/1.1/DTD/svg11.dtd">
<svg version="1.1" id="Layer_1" xmlns="http://www.w3.org/2000/svg" xmlns:xlink="http://www.w3.org/1999/xlink" x="0px" y="0px"
	 viewBox="0 0 236.2 26.7" enable-background="new 0 0 236.2 26.7" xml:space="preserve">
<rect x="73.2" y="0.5" fill="#000000" width="5.9" height="4.1"/>
<path fill="#000000" d="M20.6,10h-8.7v4.6h2.8c-0.1,0.5-0.3,0.9-0.7,1.3c-0.7,0.8-1.7,1.2-2.9,1.2c-1.6,0-2.8-0.6-3.6-1.8
	c-0.6-0.9-0.9-2.2-0.9-3.8c0-1.5,0.2-2.7,0.5-3.6c0.7-1.7,1.9-2.6,3.6-2.6c1,0,1.8,0.3,2.4,0.9c0.4,0.4,0.7,1,0.9,1.7h6.2
	c-0.2-2-1-3.7-2.4-5.1C16,1,13.6,0,10.8,0C7.7,0,5.2,1,3.2,2.9C1.1,5,0,7.8,0,11.1c0,3,0.8,5.6,2.4,7.6c1.9,2.3,4.4,3.5,7.7,3.5
	c2.6,0,4.7-0.9,6.1-2.7l0.2,2.2h4.1V10z"/>
<path fill="#000000" d="M70.2,7.6C69,6.5,67.6,5.9,66,5.9c-1.1,0-2.1,0.3-3,0.8c-0.5,0.3-1,0.7-1.5,1.3V0.5h-5.9v21.2h5.7V20
	c1,1.4,2.5,2.1,4.4,2.1c1.3,0,2.4-0.3,3.4-0.9c0.9-0.6,1.6-1.4,2.2-2.4c0.8-1.4,1.1-3,1.1-4.9C72.4,11.1,71.7,9,70.2,7.6z M64,17.4
	c-1.7,0-2.6-1.2-2.6-3.5c0-0.8,0.1-1.4,0.3-1.9c0.4-1.1,1.2-1.6,2.3-1.6c0.8,0,1.5,0.4,2,1.1c0.4,0.6,0.6,1.4,0.6,2.5
	C66.5,16.3,65.7,17.4,64,17.4z"/>
<path fill="#000000" d="M52,7.7c-1.5-1.2-3.3-1.8-5.6-1.8c-2.7,0-4.9,0.9-6.5,2.7c-1.2,1.3-1.8,2.9-2,4.7c-0.3-2.5-1.2-4.3-2.8-5.7
	c-1.5-1.2-3.3-1.8-5.6-1.8c-2.7,0-4.9,0.9-6.5,2.7c-1.3,1.5-2,3.4-2,5.5c0,1.3,0.3,2.4,0.8,3.5c0.5,1.1,1.2,1.9,2.1,2.6
	c1.5,1.2,3.5,1.8,5.9,1.8c2.8,0,4.9-0.8,6.4-2.5c0.8-0.8,1.3-1.7,1.6-2.6h-5.5c-0.6,0.8-1.4,1.3-2.5,1.3c-1.1,0-1.9-0.4-2.4-1.1
	c-0.4-0.5-0.6-1.2-0.6-2h11.2c0.1,0.8,0.3,1.6,0.7,2.4c0.5,1.1,1.2,1.9,2.1,2.6c1.5,1.2,3.5,1.8,5.9,1.8c2.8,0,4.9-0.8,6.4-2.5
	c0.8-0.8,1.3-1.7,1.6-2.6h-5.5c-0.6,0.8-1.4,1.3-2.5,1.3c-1.1,0-1.9-0.4-2.4-1.1c-0.4-0.5-0.6-1.2-0.6-2H55C55,11.9,54,9.4,52,7.7z
	 M46.5,9.7c1.1,0,1.9,0.4,2.4,1.3c0.2,0.3,0.3,0.8,0.3,1.3h-5.5C44,10.6,44.9,9.7,46.5,9.7z M29.7,9.7c1.1,0,1.9,0.4,2.4,1.3
	c0.2,0.3,0.3,0.8,0.3,1.3h-5.5C27.2,10.6,28.1,9.7,29.7,9.7z"/>
<path fill="#000000" d="M192.3,11.6c0-2.1-0.7-3.7-2.1-4.7c-1-0.7-2.1-1-3.5-1c-2,0-3.7,0.8-4.9,2.4c-0.5-0.9-1-1.5-1.6-1.8
	c-0.8-0.4-1.7-0.6-2.7-0.6c-2.1,0-3.7,0.8-4.8,2.4v-2H167v15.4h5.9v-8.6c0-1.7,0.7-2.6,2-2.6c1.2,0,1.8,0.8,1.8,2.3v8.9h5.9v-8.5
	c0-0.8,0.1-1.4,0.3-1.7c0.4-0.6,0.9-0.9,1.7-0.9c1.2,0,1.9,0.8,1.9,2.5v8.7h5.9V11.6z"/>
<path fill="#000000" d="M208,7.6c-1.2-1.1-2.6-1.7-4.2-1.7c-1.1,0-2.1,0.3-3,0.8c-0.5,0.3-1,0.7-1.5,1.3V0.5h-5.9v21.2h5.7V20
	c1,1.4,2.5,2.1,4.4,2.1c1.3,0,2.4-0.3,3.4-0.9c0.9-0.6,1.6-1.4,2.2-2.4c0.8-1.4,1.1-3,1.1-4.9C210.2,11.1,209.5,9,208,7.6z
	 M201.8,17.4c-1.7,0-2.6-1.2-2.6-3.5c0-0.8,0.1-1.4,0.3-1.9c0.4-1.1,1.2-1.6,2.3-1.6c0.8,0,1.5,0.4,2,1.1c0.4,0.6,0.6,1.4,0.6,2.5
	C204.3,16.3,203.5,17.4,201.8,17.4z"/>
<path fill="#000000" d="M226.8,6.3h-6l-1.7,5.9c-0.2,0.8-0.5,2.1-0.8,3.8c-0.2-1.4-0.5-2.6-0.8-3.6l-1.7-6.1h-6.3l5,13.6
	c0.1,0.3,0.2,0.6,0.2,0.8c0,0.5-0.2,0.9-0.7,1.1c-0.3,0.1-0.8,0.2-1.7,0.2c-0.3,0-0.7,0-1.3,0v4.7h3.1c1.1,0,1.8,0,2.1-0.1
	c1.5-0.1,2.6-0.7,3.5-1.7c0.5-0.6,1-1.6,1.5-2.9L226.8,6.3z"/>
<path fill="#000000" d="M108.2,0.5h-5.9V8c-1.2-1.4-2.6-2.1-4.4-2.1c-2.2,0-3.9,0.9-5.1,2.8c-0.3,0.5-0.6,1-0.8,1.6V6.2
	c-0.7-0.1-1.2-0.2-1.7-0.2c-2,0-3.5,0.9-4.4,2.8V6.3h-5.7v15.4h5.9v-7c0-1,0.2-1.8,0.6-2.4c0.7-1,1.7-1.4,3.1-1.4
	c0.5,0,1.2,0.1,1.9,0.4c-0.2,0.8-0.3,1.7-0.3,2.6c0,2.3,0.6,4.3,1.7,5.8c1.2,1.6,2.9,2.5,5.1,2.5c1.9,0,3.3-0.7,4.3-2.1v1.7h5.7V0.5
	z M101.9,16.6c-0.4,0.6-1,0.9-1.9,0.9c-1.7,0-2.6-1.1-2.6-3.4c0-2.4,0.9-3.6,2.6-3.6c0.9,0,1.5,0.3,1.9,1c0.4,0.7,0.6,1.5,0.6,2.6
	C102.6,15,102.3,15.9,101.9,16.6z"/>
<rect x="73.2" y="6.3" fill="#000000" width="5.9" height="15.4"/>
<path fill="#000000" d="M165.4,17.3c0-0.2,0-1.2,0-3c0-1.6,0-2.5,0-2.7c0-0.7,0-1.3-0.1-1.6c-0.2-1.2-0.8-2.1-1.7-2.7
	c-1.3-0.9-3.3-1.3-5.9-1.3c-5,0-7.5,1.7-7.7,5.1h5.5c0.1-0.5,0.2-0.9,0.5-1.1c0.3-0.3,0.9-0.5,1.7-0.5c1.3,0,1.9,0.4,1.9,1.3
	c0,0.3-0.1,0.6-0.3,0.8c-0.2,0.3-0.8,0.5-1.8,0.6c-1.4,0.2-2.2,0.3-2.6,0.4c-1.7,0.3-3,0.6-3.7,1.1c-0.8,0.5-1.3,1.1-1.6,1.9
	c0-0.1,0-0.2,0-0.3c0-2.4-1.1-4.1-3.4-5.1c-0.1,0-0.2-0.1-0.3-0.1c1.8-1,2.6-2.4,2.6-4.2c0-0.9-0.2-1.7-0.6-2.4
	c-0.5-0.9-1.2-1.6-2.1-2.1c-1.1-0.5-2.7-0.8-4.8-0.8h-10.6v21.2h11.1c2.3,0,4.1-0.4,5.4-1.2c1.2-0.8,2-1.8,2.4-3.1
	c0,1.5,0.5,2.7,1.5,3.5c1,0.8,2.3,1.2,4,1.2c2,0,3.6-0.6,4.9-1.8c0,0.4,0.1,0.9,0.2,1.4h6c-0.2-0.5-0.3-0.8-0.4-1.1
	C165.5,19.9,165.4,18.8,165.4,17.3z M136.8,5.4h3.4c1.5,0,2.3,0.6,2.3,1.7c0,0.5-0.2,0.9-0.5,1.1c-0.3,0.3-0.8,0.4-1.5,0.4h-3.6V5.4
	z M140.9,16.7h-4v-4h4c1.6,0,2.5,0.7,2.5,2C143.3,16,142.5,16.7,140.9,16.7z M159.8,15.6c0,0.9-0.1,1.5-0.4,1.9
	c-0.5,0.8-1.3,1.2-2.3,1.2c-0.5,0-0.9-0.1-1.1-0.3c-0.4-0.3-0.5-0.7-0.5-1.2c0-0.6,0.3-1,0.8-1.3c0.3-0.1,0.8-0.3,1.6-0.5
	c0.8-0.2,1.4-0.4,1.9-0.7V15.6z"/>
<path fill="#000000" d="M127.8,14c0.4-0.9,0.7-1.8,0.8-2.7h-4.9c-0.2,0.7-0.5,1.3-0.8,1.6l-1.6-2c2.3-1.1,3.5-2.9,3.5-5.2
	c0-1.7-0.7-3.1-2-4.2c-1.2-1-2.5-1.4-4.2-1.4c-1.7,0-3.1,0.4-4.3,1.4c-1.4,1.1-2.1,2.4-2.1,4.1c0,1.3,0.6,2.6,1.7,3.9
	c-0.8,0.3-1.6,0.8-2.2,1.3c-1.6,1.3-2.4,2.9-2.4,4.9c0,1.9,0.7,3.4,2.2,4.7c1.3,1.2,3.1,1.8,5.3,1.8c1.8,0,3.4-0.5,4.8-1.4
	c0.4-0.3,0.7-0.5,0.8-0.5l1.2,1.5h7l-4.5-5.3C126.8,15.7,127.4,14.9,127.8,14z M117.5,4.5c0.3-0.4,0.7-0.5,1.1-0.5
	c0.4,0,0.7,0.1,1,0.3c0.3,0.3,0.5,0.6,0.5,1.1c0,0.5-0.2,1-0.5,1.4c-0.2,0.3-0.6,0.6-1.1,0.9c0,0-0.1-0.1-0.4-0.4
	c-0.2-0.2-0.3-0.4-0.5-0.6c-0.3-0.4-0.4-0.8-0.4-1.2C117.2,5.1,117.3,4.8,117.5,4.5z M116.9,17.3c-0.6,0-1.1-0.2-1.4-0.5
	c-0.4-0.4-0.7-0.8-0.7-1.3c0-0.8,0.7-1.6,2-2.2l2.4,3C118.5,17,117.7,17.3,116.9,17.3z"/>
<path fill="#000000" d="M233.1,3.5c0-0.6,0-1.2,0-1.9c0.1,0.5,0.3,1.1,0.4,1.6l0.3,0.9h0.8l0.3-1c0.1-0.5,0.3-1,0.4-1.6l0,0.3
	c0,0.7,0,1.3,0,1.7v0.5h1V0.6h-1.5l-0.2,0.9c-0.1,0.6-0.2,1-0.3,1.4c-0.1-0.4-0.2-0.9-0.3-1.3l-0.2-0.9h-1.6v3.5h1V3.5z"/>
<polygon fill="#000000" points="229.7,4.2 230.7,4.2 230.7,1.6 231.7,1.6 231.7,0.6 228.7,0.6 228.7,1.6 229.7,1.6 "/>
</svg>
